# xmcd
#
# Track frame offsets:
#	150
#	14620
#	28172
#	43452
#	57407
#	72372
#	90010
#	106400
#	119152
#	140167
#	155665
#	171525
#
# Disc length: 2494 seconds
#
# Revision: 0
# Processed by: cddbd v1.5.2PL0 Copyright (c) Steve Scherf et al.
# Submitted via: audiograbber 1.83.01
#
DISCID=b809bc0c
DTITLE=Ron Williams - Natural Thing
DYEAR=2004
DGENRE=Country
TTITLE0=Rent Free
TTITLE1=Cotton Eyed Moon
TTITLE2=I'm Tired Of Being Something
TTITLE3=Dangerous
TTITLE4=Let There Be Light
TTITLE5=World Class Honky-Tonk
TTITLE6=Such A Natural Thing
TTITLE7=A Little Bit Of You
TTITLE8=Behind The Eight Ball Again
TTITLE9=Almost Home
TTITLE10=Bag Of Chips
TTITLE11=Close Your Eyes And You'll Miss It
EXTD=
EXTT0=
EXTT1=
EXTT2=
EXTT3=
EXTT4=
EXTT5=
EXTT6=
EXTT7=
EXTT8=
EXTT9=
EXTT10=
EXTT11=
PLAYORDER=
